<svg width="1024" height="753" viewBox="0 0 1024 753" fill="none" xmlns="http://www.w3.org/2000/svg">
<g clip-path="url(#clip0_122_130)">
<rect width="1024" height="753" fill="#121214"/>
<g opacity="0.2" filter="url(#filter0_f_122_130)">
<ellipse cx="502.5" cy="46" rx="670.5" ry="350" fill="#35875D"/>
</g>
<path d="M23.0349 282C24.5302 282 25.6622 282.63 26.4308 283.891C27.2134 285.138 27.6047 286.953 27.6047 289.336C27.6047 291.719 27.2134 293.541 26.4308 294.802C25.6622 296.063 24.5302 296.693 23.0349 296.693C21.5536 296.693 20.4216 296.063 19.639 294.802C18.8564 293.541 18.4651 291.719 18.4651 289.336C18.4651 286.967 18.8564 285.152 19.639 283.891C20.4216 282.63 21.5536 282 23.0349 282ZM19.9534 289.336C19.9534 291.026 20.1072 292.35 20.4146 293.306L25.0683 284.099C24.5791 283.448 23.9013 283.122 23.0349 283.122C22.0706 283.122 21.316 283.635 20.771 284.66C20.2259 285.672 19.9534 287.23 19.9534 289.336ZM23.0349 295.55C24.0131 295.55 24.7748 295.044 25.3198 294.033C25.8648 293.008 26.1373 291.442 26.1373 289.336C26.1373 287.549 25.9627 286.163 25.6133 285.18L20.9596 294.469C21.4627 295.19 22.1545 295.55 23.0349 295.55Z" fill="url(#paint0_linear_122_130)" fill-opacity="0.6"/>
<path d="M24.2926 319.135H27.3741V320.236H19.3874V319.135H22.9511V307.455L19.5551 309.471L18.9682 308.536L23.1607 305.959H24.2926V319.135Z" fill="url(#paint1_linear_122_130)" fill-opacity="0.6"/>
<path d="M23.0349 329.502C24.5302 329.502 25.6622 330.133 26.4308 331.393C27.2134 332.64 27.6047 334.455 27.6047 336.838C27.6047 339.221 27.2134 341.043 26.4308 342.304C25.6622 343.565 24.5302 344.195 23.0349 344.195C21.5536 344.195 20.4216 343.565 19.639 342.304C18.8564 341.043 18.4651 339.221 18.4651 336.838C18.4651 334.469 18.8564 332.654 19.639 331.393C20.4216 330.133 21.5536 329.502 23.0349 329.502ZM19.9534 336.838C19.9534 338.529 20.1072 339.852 20.4146 340.808L25.0683 331.601C24.5791 330.95 23.9013 330.624 23.0349 330.624C22.0706 330.624 21.316 331.137 20.771 332.162C20.2259 333.174 19.9534 334.732 19.9534 336.838ZM23.0349 343.052C24.0131 343.052 24.7748 342.546 25.3198 341.535C25.8648 340.51 26.1373 338.944 26.1373 336.838C26.1373 335.051 25.9627 333.665 25.6133 332.682L20.9596 341.971C21.4627 342.692 22.1545 343.052 23.0349 343.052Z" fill="url(#paint2_linear_122_130)" fill-opacity="0.6"/>
<path d="M24.2926 366.637H27.3741V367.738H19.3874V366.637H22.9511V354.957L19.5551 356.973L18.9682 356.038L23.1607 353.461H24.2926V366.637Z" fill="url(#paint3_linear_122_130)" fill-opacity="0.6"/>
<path d="M24.2926 390.388H27.3741V391.489H19.3874V390.388H22.9511V378.708L19.5551 380.724L18.9682 379.789L23.1607 377.212H24.2926V390.388Z" fill="url(#paint4_linear_122_130)" fill-opacity="0.6"/>
<path d="M23.0349 400.755C24.5302 400.755 25.6622 401.386 26.4308 402.646C27.2134 403.893 27.6047 405.708 27.6047 408.091C27.6047 410.474 27.2134 412.296 26.4308 413.557C25.6622 414.818 24.5302 415.448 23.0349 415.448C21.5536 415.448 20.4216 414.818 19.639 413.557C18.8564 412.296 18.4651 410.474 18.4651 408.091C18.4651 405.722 18.8564 403.907 19.639 402.646C20.4216 401.386 21.5536 400.755 23.0349 400.755ZM19.9534 408.091C19.9534 409.782 20.1072 411.105 20.4146 412.061L25.0683 402.854C24.5791 402.203 23.9013 401.878 23.0349 401.878C22.0706 401.878 21.316 402.39 20.771 403.415C20.2259 404.427 19.9534 405.985 19.9534 408.091ZM23.0349 414.305C24.0131 414.305 24.7748 413.8 25.3198 412.788C25.8648 411.763 26.1373 410.197 26.1373 408.091C26.1373 406.304 25.9627 404.919 25.6133 403.935L20.9596 413.225C21.4627 413.945 22.1545 414.305 23.0349 414.305Z" fill="url(#paint5_linear_122_130)" fill-opacity="0.6"/>
<path d="M24.2926 437.89H27.3741V438.992H19.3874V437.89H22.9511V426.21L19.5551 428.226L18.9682 427.291L23.1607 424.714H24.2926V437.89Z" fill="url(#paint6_linear_122_130)" fill-opacity="0.6"/>
<path d="M23.0349 448.257C24.5302 448.257 25.6622 448.888 26.4308 450.149C27.2134 451.396 27.6047 453.211 27.6047 455.594C27.6047 457.977 27.2134 459.798 26.4308 461.059C25.6622 462.32 24.5302 462.95 23.0349 462.95C21.5536 462.95 20.4216 462.32 19.639 461.059C18.8564 459.798 18.4651 457.977 18.4651 455.594C18.4651 453.224 18.8564 451.409 19.639 450.149C20.4216 448.888 21.5536 448.257 23.0349 448.257ZM19.9534 455.594C19.9534 457.284 20.1072 458.607 20.4146 459.563L25.0683 450.356C24.5791 449.705 23.9013 449.38 23.0349 449.38C22.0706 449.38 21.316 449.892 20.771 450.918C20.2259 451.929 19.9534 453.488 19.9534 455.594ZM23.0349 461.807C24.0131 461.807 24.7748 461.302 25.3198 460.29C25.8648 459.265 26.1373 457.699 26.1373 455.594C26.1373 453.806 25.9627 452.421 25.6133 451.437L20.9596 460.727C21.4627 461.447 22.1545 461.807 23.0349 461.807Z" fill="url(#paint7_linear_122_130)" fill-opacity="0.6"/>
<path d="M23.0349 472.008C24.5302 472.008 25.6622 472.639 26.4308 473.9C27.2134 475.147 27.6047 476.962 27.6047 479.345C27.6047 481.728 27.2134 483.549 26.4308 484.81C25.6622 486.071 24.5302 486.701 23.0349 486.701C21.5536 486.701 20.4216 486.071 19.639 484.81C18.8564 483.549 18.4651 481.728 18.4651 479.345C18.4651 476.975 18.8564 475.16 19.639 473.9C20.4216 472.639 21.5536 472.008 23.0349 472.008ZM19.9534 479.345C19.9534 481.035 20.1072 482.358 20.4146 483.314L25.0683 474.107C24.5791 473.456 23.9013 473.131 23.0349 473.131C22.0706 473.131 21.316 473.643 20.771 474.669C20.2259 475.68 19.9534 477.239 19.9534 479.345ZM23.0349 485.558C24.0131 485.558 24.7748 485.053 25.3198 484.041C25.8648 483.016 26.1373 481.451 26.1373 479.345C26.1373 477.557 25.9627 476.172 25.6133 475.188L20.9596 484.478C21.4627 485.198 22.1545 485.558 23.0349 485.558Z" fill="url(#paint8_linear_122_130)" fill-opacity="0.6"/>
<path d="M24.2926 509.143H27.3741V510.245H19.3874V509.143H22.9511V497.464L19.5551 499.48L18.9682 498.544L23.1607 495.967H24.2926V509.143Z" fill="url(#paint9_linear_122_130)" fill-opacity="0.6"/>
<path d="M23.0349 519.511C24.5302 519.511 25.6622 520.141 26.4308 521.402C27.2134 522.649 27.6047 524.464 27.6047 526.847C27.6047 529.23 27.2134 531.052 26.4308 532.312C25.6622 533.573 24.5302 534.204 23.0349 534.204C21.5536 534.204 20.4216 533.573 19.639 532.312C18.8564 531.052 18.4651 529.23 18.4651 526.847C18.4651 524.478 18.8564 522.663 19.639 521.402C20.4216 520.141 21.5536 519.511 23.0349 519.511ZM19.9534 526.847C19.9534 528.537 20.1072 529.86 20.4146 530.816L25.0683 521.61C24.5791 520.958 23.9013 520.633 23.0349 520.633C22.0706 520.633 21.316 521.145 20.771 522.171C20.2259 523.182 19.9534 524.741 19.9534 526.847ZM23.0349 533.061C24.0131 533.061 24.7748 532.555 25.3198 531.543C25.8648 530.518 26.1373 528.953 26.1373 526.847C26.1373 525.059 25.9627 523.674 25.6133 522.69L20.9596 531.98C21.4627 532.7 22.1545 533.061 23.0349 533.061Z" fill="url(#paint10_linear_122_130)" fill-opacity="0.6"/>
<path d="M24.2926 556.645H27.3741V557.747H19.3874V556.645H22.9511V544.966L19.5551 546.982L18.9682 546.046L23.1607 543.469H24.2926V556.645Z" fill="url(#paint11_linear_122_130)" fill-opacity="0.6"/>
<path d="M24.2926 580.396H27.3741V581.498H19.3874V580.396H22.9511V568.717L19.5551 570.733L18.9682 569.798L23.1607 567.221H24.2926V580.396Z" fill="url(#paint12_linear_122_130)" fill-opacity="0.6"/>
<path d="M61.9651 329.502C63.4604 329.502 64.5924 330.133 65.361 331.393C66.1436 332.64 66.5349 334.455 66.5349 336.838C66.5349 339.221 66.1436 341.043 65.361 342.304C64.5924 343.565 63.4604 344.195 61.9651 344.195C60.4838 344.195 59.3518 343.565 58.5692 342.304C57.7866 341.043 57.3953 339.221 57.3953 336.838C57.3953 334.469 57.7866 332.654 58.5692 331.393C59.3518 330.133 60.4838 329.502 61.9651 329.502ZM58.8836 336.838C58.8836 338.529 59.0374 339.852 59.3448 340.808L63.9985 331.601C63.5093 330.95 62.8315 330.624 61.9651 330.624C61.0008 330.624 60.2462 331.137 59.7012 332.162C59.1561 333.174 58.8836 334.732 58.8836 336.838ZM61.9651 343.052C62.9433 343.052 63.705 342.546 64.25 341.535C64.795 340.51 65.0675 338.944 65.0675 336.838C65.0675 335.051 64.8928 333.665 64.5435 332.682L59.8898 341.971C60.3929 342.692 61.0847 343.052 61.9651 343.052Z" fill="url(#paint13_linear_122_130)" fill-opacity="0.6"/>
<path d="M63.2228 366.637H66.3043V367.738H58.3176V366.637H61.8812V354.957L58.4853 356.973L57.8984 356.038L62.0909 353.461H63.2228V366.637Z" fill="url(#paint14_linear_122_130)" fill-opacity="0.6"/>
<path d="M61.9651 377.004C63.4604 377.004 64.5924 377.635 65.361 378.895C66.1436 380.142 66.5349 381.957 66.5349 384.34C66.5349 386.723 66.1436 388.545 65.361 389.806C64.5924 391.067 63.4604 391.697 61.9651 391.697C60.4838 391.697 59.3518 391.067 58.5692 389.806C57.7866 388.545 57.3953 386.723 57.3953 384.34C57.3953 381.971 57.7866 380.156 58.5692 378.895C59.3518 377.635 60.4838 377.004 61.9651 377.004ZM58.8836 384.34C58.8836 386.031 59.0374 387.354 59.3448 388.31L63.9985 379.103C63.5093 378.452 62.8315 378.126 61.9651 378.126C61.0008 378.126 60.2462 378.639 59.7012 379.664C59.1561 380.676 58.8836 382.234 58.8836 384.34ZM61.9651 390.554C62.9433 390.554 63.705 390.049 64.25 389.037C64.795 388.012 65.0675 386.446 65.0675 384.34C65.0675 382.553 64.8928 381.168 64.5435 380.184L59.8898 389.474C60.3929 390.194 61.0847 390.554 61.9651 390.554Z" fill="url(#paint15_linear_122_130)" fill-opacity="0.6"/>
<path d="M61.9651 400.755C63.4604 400.755 64.5924 401.386 65.361 402.646C66.1436 403.893 66.5349 405.708 66.5349 408.091C66.5349 410.474 66.1436 412.296 65.361 413.557C64.5924 414.818 63.4604 415.448 61.9651 415.448C60.4838 415.448 59.3518 414.818 58.5692 413.557C57.7866 412.296 57.3953 410.474 57.3953 408.091C57.3953 405.722 57.7866 403.907 58.5692 402.646C59.3518 401.386 60.4838 400.755 61.9651 400.755ZM58.8836 408.091C58.8836 409.782 59.0374 411.105 59.3448 412.061L63.9985 402.854C63.5093 402.203 62.8315 401.878 61.9651 401.878C61.0008 401.878 60.2462 402.39 59.7012 403.415C59.1561 404.427 58.8836 405.985 58.8836 408.091ZM61.9651 414.305C62.9433 414.305 63.705 413.8 64.25 412.788C64.795 411.763 65.0675 410.197 65.0675 408.091C65.0675 406.304 64.8928 404.919 64.5435 403.935L59.8898 413.225C60.3929 413.945 61.0847 414.305 61.9651 414.305Z" fill="url(#paint16_linear_122_130)" fill-opacity="0.6"/>
<path d="M63.2228 437.89H66.3043V438.992H58.3176V437.89H61.8812V426.21L58.4853 428.226L57.8984 427.291L62.0909 424.714H63.2228V437.89Z" fill="url(#paint17_linear_122_130)" fill-opacity="0.6"/>
<path d="M61.9651 448.257C63.4604 448.257 64.5924 448.888 65.361 450.149C66.1436 451.396 66.5349 453.211 66.5349 455.594C66.5349 457.977 66.1436 459.798 65.361 461.059C64.5924 462.32 63.4604 462.95 61.9651 462.95C60.4838 462.95 59.3518 462.32 58.5692 461.059C57.7866 459.798 57.3953 457.977 57.3953 455.594C57.3953 453.224 57.7866 451.409 58.5692 450.149C59.3518 448.888 60.4838 448.257 61.9651 448.257ZM58.8836 455.594C58.8836 457.284 59.0374 458.607 59.3448 459.563L63.9985 450.356C63.5093 449.705 62.8315 449.38 61.9651 449.38C61.0008 449.38 60.2462 449.892 59.7012 450.918C59.1561 451.929 58.8836 453.488 58.8836 455.594ZM61.9651 461.807C62.9433 461.807 63.705 461.302 64.25 460.29C64.795 459.265 65.0675 457.699 65.0675 455.594C65.0675 453.806 64.8928 452.421 64.5435 451.437L59.8898 460.727C60.3929 461.447 61.0847 461.807 61.9651 461.807Z" fill="url(#paint18_linear_122_130)" fill-opacity="0.6"/>
<path d="M63.2228 485.392H66.3043V486.494H58.3176V485.392H61.8812V473.713L58.4853 475.728L57.8984 474.793L62.0909 472.216H63.2228V485.392Z" fill="url(#paint19_linear_122_130)" fill-opacity="0.6"/>
<path d="M61.9651 495.76C63.4604 495.76 64.5924 496.39 65.361 497.651C66.1436 498.898 66.5349 500.713 66.5349 503.096C66.5349 505.479 66.1436 507.301 65.361 508.561C64.5924 509.822 63.4604 510.453 61.9651 510.453C60.4838 510.453 59.3518 509.822 58.5692 508.561C57.7866 507.301 57.3953 505.479 57.3953 503.096C57.3953 500.726 57.7866 498.911 58.5692 497.651C59.3518 496.39 60.4838 495.76 61.9651 495.76ZM58.8836 503.096C58.8836 504.786 59.0374 506.109 59.3448 507.065L63.9985 497.859C63.5093 497.207 62.8315 496.882 61.9651 496.882C61.0008 496.882 60.2462 497.394 59.7012 498.42C59.1561 499.431 58.8836 500.99 58.8836 503.096ZM61.9651 509.31C62.9433 509.31 63.705 508.804 64.25 507.792C64.795 506.767 65.0675 505.202 65.0675 503.096C65.0675 501.308 64.8928 499.923 64.5435 498.939L59.8898 508.229C60.3929 508.949 61.0847 509.31 61.9651 509.31Z" fill="url(#paint20_linear_122_130)" fill-opacity="0.6"/>
<path d="M61.9651 519.511C63.4604 519.511 64.5924 520.141 65.361 521.402C66.1436 522.649 66.5349 524.464 66.5349 526.847C66.5349 529.23 66.1436 531.052 65.361 532.312C64.5924 533.573 63.4604 534.204 61.9651 534.204C60.4838 534.204 59.3518 533.573 58.5692 532.312C57.7866 531.052 57.3953 529.23 57.3953 526.847C57.3953 524.478 57.7866 522.663 58.5692 521.402C59.3518 520.141 60.4838 519.511 61.9651 519.511ZM58.8836 526.847C58.8836 528.537 59.0374 529.86 59.3448 530.816L63.9985 521.61C63.5093 520.958 62.8315 520.633 61.9651 520.633C61.0008 520.633 60.2462 521.145 59.7012 522.171C59.1561 523.182 58.8836 524.741 58.8836 526.847ZM61.9651 533.061C62.9433 533.061 63.705 532.555 64.25 531.543C64.795 530.518 65.0675 528.953 65.0675 526.847C65.0675 525.059 64.8928 523.674 64.5435 522.69L59.8898 531.98C60.3929 532.7 61.0847 533.061 61.9651 533.061Z" fill="url(#paint21_linear_122_130)" fill-opacity="0.6"/>
<path d="M63.2228 556.645H66.3043V557.747H58.3176V556.645H61.8812V544.966L58.4853 546.982L57.8984 546.046L62.0909 543.469H63.2228V556.645Z" fill="url(#paint22_linear_122_130)" fill-opacity="0.6"/>
<path d="M61.9651 567.013C63.4604 567.013 64.5924 567.643 65.361 568.904C66.1436 570.151 66.5349 571.966 66.5349 574.349C66.5349 576.732 66.1436 578.554 65.361 579.815C64.5924 581.075 63.4604 581.706 61.9651 581.706C60.4838 581.706 59.3518 581.075 58.5692 579.815C57.7866 578.554 57.3953 576.732 57.3953 574.349C57.3953 571.98 57.7866 570.165 58.5692 568.904C59.3518 567.643 60.4838 567.013 61.9651 567.013ZM58.8836 574.349C58.8836 576.039 59.0374 577.362 59.3448 578.318L63.9985 569.112C63.5093 568.461 62.8315 568.135 61.9651 568.135C61.0008 568.135 60.2462 568.648 59.7012 569.673C59.1561 570.684 58.8836 572.243 58.8836 574.349ZM61.9651 580.563C62.9433 580.563 63.705 580.057 64.25 579.046C64.795 578.02 65.0675 576.455 65.0675 574.349C65.0675 572.562 64.8928 571.176 64.5435 570.192L59.8898 579.482C60.3929 580.202 61.0847 580.563 61.9651 580.563Z" fill="url(#paint23_linear_122_130)" fill-opacity="0.6"/>
<path d="M63.2228 604.148H66.3043V605.249H58.3176V604.148H61.8812V592.468L58.4853 594.484L57.8984 593.549L62.0909 590.972H63.2228V604.148Z" fill="url(#paint24_linear_122_130)" fill-opacity="0.6"/>
<path d="M63.2228 627.899H66.3043V629H58.3176V627.899H61.8812V616.219L58.4853 618.235L57.8984 617.3L62.0909 614.723H63.2228V627.899Z" fill="url(#paint25_linear_122_130)" fill-opacity="0.6"/>
<path d="M3.56981 353.253C5.06512 353.253 6.1971 353.884 6.96572 355.144C7.74831 356.391 8.13961 358.206 8.13961 360.589C8.13961 362.972 7.74831 364.794 6.96572 366.055C6.1971 367.316 5.06512 367.946 3.56981 367.946C2.08846 367.946 0.956492 367.316 0.173895 366.055C-0.608701 364.794 -1 362.972 -1 360.589C-1 358.22 -0.608701 356.405 0.173895 355.144C0.956492 353.884 2.08846 353.253 3.56981 353.253ZM0.488331 360.589C0.488331 362.28 0.642056 363.603 0.949505 364.559L5.60316 355.352C5.11404 354.701 4.43625 354.375 3.56981 354.375C2.60553 354.375 1.85089 354.888 1.30587 355.913C0.760843 356.925 0.488331 358.483 0.488331 360.589ZM3.56981 366.803C4.54805 366.803 5.30969 366.297 5.85471 365.286C6.39973 364.261 6.67224 362.695 6.67224 360.589C6.67224 358.802 6.49756 357.417 6.14818 356.433L1.49453 365.722C1.99763 366.443 2.68938 366.803 3.56981 366.803Z" fill="url(#paint26_linear_122_130)" fill-opacity="0.6"/>
<path d="M3.56981 377.004C5.06512 377.004 6.1971 377.635 6.96572 378.895C7.74831 380.142 8.13961 381.957 8.13961 384.34C8.13961 386.723 7.74831 388.545 6.96572 389.806C6.1971 391.067 5.06512 391.697 3.56981 391.697C2.08846 391.697 0.956492 391.067 0.173895 389.806C-0.608701 388.545 -1 386.723 -1 384.34C-1 381.971 -0.608701 380.156 0.173895 378.895C0.956492 377.635 2.08846 377.004 3.56981 377.004ZM0.488331 384.34C0.488331 386.031 0.642056 387.354 0.949505 388.31L5.60316 379.103C5.11404 378.452 4.43625 378.126 3.56981 378.126C2.60553 378.126 1.85089 378.639 1.30587 379.664C0.760843 380.676 0.488331 382.234 0.488331 384.34ZM3.56981 390.554C4.54805 390.554 5.30969 390.049 5.85471 389.037C6.39973 388.012 6.67224 386.446 6.67224 384.34C6.67224 382.553 6.49756 381.168 6.14818 380.184L1.49453 389.474C1.99763 390.194 2.68938 390.554 3.56981 390.554Z" fill="url(#paint27_linear_122_130)" fill-opacity="0.6"/>
<path d="M4.82755 414.139H7.90903V415.24H-0.0776539V414.139H3.48596V402.459L0.0900455 404.475L-0.496902 403.54L3.69558 400.963H4.82755V414.139Z" fill="url(#paint28_linear_122_130)" fill-opacity="0.6"/>
<path d="M3.56981 424.506C5.06512 424.506 6.1971 425.137 6.96572 426.398C7.74831 427.644 8.13961 429.459 8.13961 431.842C8.13961 434.225 7.74831 436.047 6.96572 437.308C6.1971 438.569 5.06512 439.199 3.56981 439.199C2.08846 439.199 0.956492 438.569 0.173895 437.308C-0.608701 436.047 -1 434.225 -1 431.842C-1 429.473 -0.608701 427.658 0.173895 426.398C0.956492 425.137 2.08846 424.506 3.56981 424.506ZM0.488331 431.842C0.488331 433.533 0.642056 434.856 0.949505 435.812L5.60316 426.605C5.11404 425.954 4.43625 425.629 3.56981 425.629C2.60553 425.629 1.85089 426.141 1.30587 427.166C0.760843 428.178 0.488331 429.737 0.488331 431.842ZM3.56981 438.056C4.54805 438.056 5.30969 437.551 5.85471 436.539C6.39973 435.514 6.67224 433.948 6.67224 431.842C6.67224 430.055 6.49756 428.67 6.14818 427.686L1.49453 436.976C1.99763 437.696 2.68938 438.056 3.56981 438.056Z" fill="url(#paint29_linear_122_130)" fill-opacity="0.6"/>
<path d="M4.82755 461.641H7.90903V462.743H-0.0776539V461.641H3.48596V449.962L0.0900455 451.977L-0.496902 451.042L3.69558 448.465H4.82755V461.641Z" fill="url(#paint30_linear_122_130)" fill-opacity="0.6"/>
<path d="M4.82755 485.392H7.90903V486.494H-0.0776539V485.392H3.48596V473.713L0.0900455 475.728L-0.496902 474.793L3.69558 472.216H4.82755V485.392Z" fill="url(#paint31_linear_122_130)" fill-opacity="0.6"/>
<path d="M43.7577 319.135H46.8392V320.236H38.8525V319.135H42.4162V307.455L39.0202 309.471L38.4333 308.536L42.6258 305.959H43.7577V319.135Z" fill="url(#paint32_linear_122_130)" fill-opacity="0.6"/>
<path d="M42.5 329.502C43.9953 329.502 45.1273 330.133 45.8959 331.393C46.6785 332.64 47.0698 334.455 47.0698 336.838C47.0698 339.221 46.6785 341.043 45.8959 342.304C45.1273 343.565 43.9953 344.195 42.5 344.195C41.0187 344.195 39.8867 343.565 39.1041 342.304C38.3215 341.043 37.9302 339.221 37.9302 336.838C37.9302 334.469 38.3215 332.654 39.1041 331.393C39.8867 330.133 41.0187 329.502 42.5 329.502ZM39.4185 336.838C39.4185 338.529 39.5723 339.852 39.8797 340.808L44.5334 331.601C44.0442 330.95 43.3664 330.624 42.5 330.624C41.5357 330.624 40.7811 331.137 40.2361 332.162C39.691 333.174 39.4185 334.732 39.4185 336.838ZM42.5 343.052C43.4782 343.052 44.2399 342.546 44.7849 341.535C45.3299 340.51 45.6024 338.944 45.6024 336.838C45.6024 335.051 45.4277 333.665 45.0784 332.682L40.4247 341.971C40.9278 342.692 41.6196 343.052 42.5 343.052Z" fill="url(#paint33_linear_122_130)" fill-opacity="0.6"/>
<path d="M43.7577 366.637H46.8392V367.738H38.8525V366.637H42.4162V354.957L39.0202 356.973L38.4333 356.038L42.6258 353.461H43.7577V366.637Z" fill="url(#paint34_linear_122_130)" fill-opacity="0.6"/>
<path d="M43.7577 390.388H46.8392V391.489H38.8525V390.388H42.4162V378.708L39.0202 380.724L38.4333 379.789L42.6258 377.212H43.7577V390.388Z" fill="url(#paint35_linear_122_130)" fill-opacity="0.6"/>
<path d="M42.5 400.755C43.9953 400.755 45.1273 401.386 45.8959 402.646C46.6785 403.893 47.0698 405.708 47.0698 408.091C47.0698 410.474 46.6785 412.296 45.8959 413.557C45.1273 414.818 43.9953 415.448 42.5 415.448C41.0187 415.448 39.8867 414.818 39.1041 413.557C38.3215 412.296 37.9302 410.474 37.9302 408.091C37.9302 405.722 38.3215 403.907 39.1041 402.646C39.8867 401.386 41.0187 400.755 42.5 400.755ZM39.4185 408.091C39.4185 409.782 39.5723 411.105 39.8797 412.061L44.5334 402.854C44.0442 402.203 43.3664 401.878 42.5 401.878C41.5357 401.878 40.7811 402.39 40.2361 403.415C39.691 404.427 39.4185 405.985 39.4185 408.091ZM42.5 414.305C43.4782 414.305 44.2399 413.8 44.7849 412.788C45.3299 411.763 45.6024 410.197 45.6024 408.091C45.6024 406.304 45.4277 404.919 45.0784 403.935L40.4247 413.225C40.9278 413.945 41.6196 414.305 42.5 414.305Z" fill="url(#paint36_linear_122_130)" fill-opacity="0.6"/>
<path d="M43.7577 437.89H46.8392V438.992H38.8525V437.89H42.4162V426.21L39.0202 428.226L38.4333 427.291L42.6258 424.714H43.7577V437.89Z" fill="url(#paint37_linear_122_130)" fill-opacity="0.6"/>
<path d="M43.7577 461.641H46.8392V462.743H38.8525V461.641H42.4162V449.962L39.0202 451.977L38.4333 451.042L42.6258 448.465H43.7577V461.641Z" fill="url(#paint38_linear_122_130)" fill-opacity="0.6"/>
<path d="M42.5 472.008C43.9953 472.008 45.1273 472.639 45.8959 473.9C46.6785 475.147 47.0698 476.962 47.0698 479.345C47.0698 481.728 46.6785 483.549 45.8959 484.81C45.1273 486.071 43.9953 486.701 42.5 486.701C41.0187 486.701 39.8867 486.071 39.1041 484.81C38.3215 483.549 37.9302 481.728 37.9302 479.345C37.9302 476.975 38.3215 475.16 39.1041 473.9C39.8867 472.639 41.0187 472.008 42.5 472.008ZM39.4185 479.345C39.4185 481.035 39.5723 482.358 39.8797 483.314L44.5334 474.107C44.0442 473.456 43.3664 473.131 42.5 473.131C41.5357 473.131 40.7811 473.643 40.2361 474.669C39.691 475.68 39.4185 477.239 39.4185 479.345ZM42.5 485.558C43.4782 485.558 44.2399 485.053 44.7849 484.041C45.3299 483.016 45.6024 481.451 45.6024 479.345C45.6024 477.557 45.4277 476.172 45.0784 475.188L40.4247 484.478C40.9278 485.198 41.6196 485.558 42.5 485.558Z" fill="url(#paint39_linear_122_130)" fill-opacity="0.6"/>
<path d="M43.7577 509.143H46.8392V510.245H38.8525V509.143H42.4162V497.464L39.0202 499.48L38.4333 498.544L42.6258 495.967H43.7577V509.143Z" fill="url(#paint40_linear_122_130)" fill-opacity="0.6"/>
<path d="M42.5 519.511C43.9953 519.511 45.1273 520.141 45.8959 521.402C46.6785 522.649 47.0698 524.464 47.0698 526.847C47.0698 529.23 46.6785 531.052 45.8959 532.312C45.1273 533.573 43.9953 534.204 42.5 534.204C41.0187 534.204 39.8867 533.573 39.1041 532.312C38.3215 531.052 37.9302 529.23 37.9302 526.847C37.9302 524.478 38.3215 522.663 39.1041 521.402C39.8867 520.141 41.0187 519.511 42.5 519.511ZM39.4185 526.847C39.4185 528.537 39.5723 529.86 39.8797 530.816L44.5334 521.61C44.0442 520.958 43.3664 520.633 42.5 520.633C41.5357 520.633 40.7811 521.145 40.2361 522.171C39.691 523.182 39.4185 524.741 39.4185 526.847ZM42.5 533.061C43.4782 533.061 44.2399 532.555 44.7849 531.543C45.3299 530.518 45.6024 528.953 45.6024 526.847C45.6024 525.059 45.4277 523.674 45.0784 522.69L40.4247 531.98C40.9278 532.7 41.6196 533.061 42.5 533.061Z" fill="url(#paint41_linear_122_130)" fill-opacity="0.6"/>
<path d="M81.4302 305.751C82.9255 305.751 84.0575 306.381 84.8261 307.642C85.6087 308.889 86 310.704 86 313.087C86 315.47 85.6087 317.292 84.8261 318.553C84.0575 319.814 82.9255 320.444 81.4302 320.444C79.9489 320.444 78.8169 319.814 78.0343 318.553C77.2517 317.292 76.8604 315.47 76.8604 313.087C76.8604 310.718 77.2517 308.903 78.0343 307.642C78.8169 306.381 79.9489 305.751 81.4302 305.751ZM78.3487 313.087C78.3487 314.777 78.5024 316.101 78.8099 317.057L83.4636 307.85C82.9744 307.199 82.2966 306.873 81.4302 306.873C80.4659 306.873 79.7113 307.386 79.1663 308.411C78.6212 309.423 78.3487 310.981 78.3487 313.087ZM81.4302 319.301C82.4084 319.301 83.1701 318.795 83.7151 317.784C84.2601 316.759 84.5326 315.193 84.5326 313.087C84.5326 311.3 84.3579 309.914 84.0086 308.931L79.3549 318.22C79.858 318.941 80.5498 319.301 81.4302 319.301Z" fill="url(#paint42_linear_122_130)" fill-opacity="0.6"/>
<path d="M82.6879 342.886H85.7694V343.987H77.7827V342.886H81.3463V331.206L77.9504 333.222L77.3635 332.287L81.556 329.71H82.6879V342.886Z" fill="url(#paint43_linear_122_130)" fill-opacity="0.6"/>
<path d="M82.6879 366.637H85.7694V367.738H77.7827V366.637H81.3463V354.957L77.9504 356.973L77.3635 356.038L81.556 353.461H82.6879V366.637Z" fill="url(#paint44_linear_122_130)" fill-opacity="0.6"/>
<path d="M81.4302 377.004C82.9255 377.004 84.0575 377.635 84.8261 378.895C85.6087 380.142 86 381.957 86 384.34C86 386.723 85.6087 388.545 84.8261 389.806C84.0575 391.067 82.9255 391.697 81.4302 391.697C79.9489 391.697 78.8169 391.067 78.0343 389.806C77.2517 388.545 76.8604 386.723 76.8604 384.34C76.8604 381.971 77.2517 380.156 78.0343 378.895C78.8169 377.635 79.9489 377.004 81.4302 377.004ZM78.3487 384.34C78.3487 386.031 78.5024 387.354 78.8099 388.31L83.4636 379.103C82.9744 378.452 82.2966 378.126 81.4302 378.126C80.4659 378.126 79.7113 378.639 79.1663 379.664C78.6212 380.676 78.3487 382.234 78.3487 384.34ZM81.4302 390.554C82.4084 390.554 83.1701 390.049 83.7151 389.037C84.2601 388.012 84.5326 386.446 84.5326 384.34C84.5326 382.553 84.3579 381.168 84.0086 380.184L79.3549 389.474C79.858 390.194 80.5498 390.554 81.4302 390.554Z" fill="url(#paint45_linear_122_130)" fill-opacity="0.6"/>
<path d="M81.4302 400.755C82.9255 400.755 84.0575 401.386 84.8261 402.646C85.6087 403.893 86 405.708 86 408.091C86 410.474 85.6087 412.296 84.8261 413.557C84.0575 414.818 82.9255 415.448 81.4302 415.448C79.9489 415.448 78.8169 414.818 78.0343 413.557C77.2517 412.296 76.8604 410.474 76.8604 408.091C76.8604 405.722 77.2517 403.907 78.0343 402.646C78.8169 401.386 79.9489 400.755 81.4302 400.755ZM78.3487 408.091C78.3487 409.782 78.5024 411.105 78.8099 412.061L83.4636 402.854C82.9744 402.203 82.2966 401.878 81.4302 401.878C80.4659 401.878 79.7113 402.39 79.1663 403.415C78.6212 404.427 78.3487 405.985 78.3487 408.091ZM81.4302 414.305C82.4084 414.305 83.1701 413.8 83.7151 412.788C84.2601 411.763 84.5326 410.197 84.5326 408.091C84.5326 406.304 84.3579 404.919 84.0086 403.935L79.3549 413.225C79.858 413.945 80.5498 414.305 81.4302 414.305Z" fill="url(#paint46_linear_122_130)" fill-opacity="0.6"/>
<g opacity="0.6">
<path d="M909.93 -18C911.356 -18 912.436 -17.395 913.17 -16.1851C913.916 -14.9885 914.29 -13.2468 914.29 -10.9599C914.29 -8.67299 913.916 -6.9246 913.17 -5.71468C912.436 -4.50476 911.356 -3.8998 909.93 -3.8998C908.517 -3.8998 907.437 -4.50476 906.69 -5.71468C905.943 -6.9246 905.57 -8.67299 905.57 -10.9599C905.57 -13.2335 905.943 -14.9752 906.69 -16.1851C907.437 -17.395 908.517 -18 909.93 -18ZM906.99 -10.9599C906.99 -9.33778 907.137 -8.06804 907.43 -7.15063L911.87 -15.9857C911.403 -16.6106 910.756 -16.923 909.93 -16.923C909.01 -16.923 908.29 -16.4311 907.77 -15.4472C907.25 -14.4766 906.99 -12.9808 906.99 -10.9599ZM909.93 -4.99671C910.863 -4.99671 911.59 -5.482 912.11 -6.4526C912.63 -7.43649 912.89 -8.93891 912.89 -10.9599C912.89 -12.675 912.723 -14.0046 912.39 -14.9486L907.95 -6.03378C908.43 -5.3424 909.09 -4.99671 909.93 -4.99671Z" fill="url(#paint47_linear_122_130)"/>
<path d="M911.13 17.6365H914.07V18.6936H906.45V17.6365H909.85V6.42819L906.61 8.36273L906.05 7.46526L910.05 4.99224H911.13V17.6365Z" fill="url(#paint48_linear_122_130)"/>
<path d="M909.93 27.5856C911.356 27.5856 912.436 28.1906 913.17 29.4005C913.916 30.5971 914.29 32.3389 914.29 34.6257C914.29 36.9126 913.916 38.661 913.17 39.8709C912.436 41.0808 911.356 41.6858 909.93 41.6858C908.517 41.6858 907.437 41.0808 906.69 39.8709C905.943 38.661 905.57 36.9126 905.57 34.6257C905.57 32.3522 905.943 30.6104 906.69 29.4005C907.437 28.1906 908.517 27.5856 909.93 27.5856ZM906.99 34.6257C906.99 36.2478 907.137 37.5176 907.43 38.435L911.87 29.5999C911.403 28.975 910.756 28.6626 909.93 28.6626C909.01 28.6626 908.29 29.1545 907.77 30.1384C907.25 31.109 906.99 32.6048 906.99 34.6257ZM909.93 40.5889C910.863 40.5889 911.59 40.1036 912.11 39.133C912.63 38.1491 912.89 36.6467 912.89 34.6257C912.89 32.9106 912.723 31.581 912.39 30.637L907.95 39.5518C908.43 40.2432 909.09 40.5889 909.93 40.5889Z" fill="url(#paint49_linear_122_130)"/>
<path d="M911.13 63.2221H914.07V64.2792H906.45V63.2221H909.85V52.0138L906.61 53.9483L906.05 53.0509L910.05 50.5778H911.13V63.2221Z" fill="url(#paint50_linear_122_130)"/>
<path d="M911.13 86.015H914.07V87.072H906.45V86.015H909.85V74.8066L906.61 76.7411L906.05 75.8437L910.05 73.3706H911.13V86.015Z" fill="url(#paint51_linear_122_130)"/>
<path d="M909.93 95.964C911.356 95.964 912.436 96.569 913.17 97.7789C913.916 98.9755 914.29 100.717 914.29 103.004C914.29 105.291 913.916 107.039 913.17 108.249C912.436 109.459 911.356 110.064 909.93 110.064C908.517 110.064 907.437 109.459 906.69 108.249C905.943 107.039 905.57 105.291 905.57 103.004C905.57 100.731 905.943 98.9888 906.69 97.7789C907.437 96.569 908.517 95.964 909.93 95.964ZM906.99 103.004C906.99 104.626 907.137 105.896 907.43 106.813L911.87 97.9783C911.403 97.3534 910.756 97.041 909.93 97.041C909.01 97.041 908.29 97.5329 907.77 98.5168C907.25 99.4874 906.99 100.983 906.99 103.004ZM909.93 108.967C910.863 108.967 911.59 108.482 912.11 107.511C912.63 106.528 912.89 105.025 912.89 103.004C912.89 101.289 912.723 99.9594 912.39 99.0154L907.95 107.93C908.43 108.622 909.09 108.967 909.93 108.967Z" fill="url(#paint52_linear_122_130)"/>
<path d="M911.13 131.601H914.07V132.658H906.45V131.601H909.85V120.392L906.61 122.327L906.05 121.429L910.05 118.956H911.13V131.601Z" fill="url(#paint53_linear_122_130)"/>
<path d="M909.93 141.55C911.356 141.55 912.436 142.155 913.17 143.365C913.916 144.561 914.29 146.303 914.29 148.59C914.29 150.877 913.916 152.625 913.17 153.835C912.436 155.045 911.356 155.65 909.93 155.65C908.517 155.65 907.437 155.045 906.69 153.835C905.943 152.625 905.57 150.877 905.57 148.59C905.57 146.316 905.943 144.574 906.69 143.365C907.437 142.155 908.517 141.55 909.93 141.55ZM906.99 148.59C906.99 150.212 907.137 151.482 907.43 152.399L911.87 143.564C911.403 142.939 910.756 142.627 909.93 142.627C909.01 142.627 908.29 143.119 907.77 144.102C907.25 145.073 906.99 146.569 906.99 148.59ZM909.93 154.553C910.863 154.553 911.59 154.068 912.11 153.097C912.63 152.113 912.89 150.611 912.89 148.59C912.89 146.875 912.723 145.545 912.39 144.601L907.95 153.516C908.43 154.207 909.09 154.553 909.93 154.553Z" fill="url(#paint54_linear_122_130)"/>
<path d="M909.93 164.342C911.356 164.342 912.436 164.947 913.17 166.157C913.916 167.354 914.29 169.096 914.29 171.383C914.29 173.669 913.916 175.418 913.17 176.628C912.436 177.838 911.356 178.443 909.93 178.443C908.517 178.443 907.437 177.838 906.69 176.628C905.943 175.418 905.57 173.669 905.57 171.383C905.57 169.109 905.943 167.367 906.69 166.157C907.437 164.947 908.517 164.342 909.93 164.342ZM906.99 171.383C906.99 173.005 907.137 174.274 907.43 175.192L911.87 166.357C911.403 165.732 910.756 165.419 909.93 165.419C909.01 165.419 908.29 165.911 907.77 166.895C907.25 167.866 906.99 169.362 906.99 171.383ZM909.93 177.346C910.863 177.346 911.59 176.86 912.11 175.89C912.63 174.906 912.89 173.404 912.89 171.383C912.89 169.667 912.723 168.338 912.39 167.394L907.95 176.309C908.43 177 909.09 177.346 909.93 177.346Z" fill="url(#paint55_linear_122_130)"/>
<path d="M911.13 199.979H914.07V201.036H906.45V199.979H909.85V188.771L906.61 190.705L906.05 189.808L910.05 187.335H911.13V199.979Z" fill="url(#paint56_linear_122_130)"/>
<path d="M909.93 209.928C911.356 209.928 912.436 210.533 913.17 211.743C913.916 212.94 914.29 214.681 914.29 216.968C914.29 219.255 913.916 221.003 913.17 222.213C912.436 223.423 911.356 224.028 909.93 224.028C908.517 224.028 907.437 223.423 906.69 222.213C905.943 221.003 905.57 219.255 905.57 216.968C905.57 214.695 905.943 212.953 906.69 211.743C907.437 210.533 908.517 209.928 909.93 209.928ZM906.99 216.968C906.99 218.59 907.137 219.86 907.43 220.777L911.87 211.942C911.403 211.317 910.756 211.005 909.93 211.005C909.01 211.005 908.29 211.497 907.77 212.481C907.25 213.451 906.99 214.947 906.99 216.968ZM909.93 222.931C910.863 222.931 911.59 222.446 912.11 221.475C912.63 220.492 912.89 218.989 912.89 216.968C912.89 215.253 912.723 213.923 912.39 212.979L907.95 221.894C908.43 222.586 909.09 222.931 909.93 222.931Z" fill="url(#paint57_linear_122_130)"/>
<path d="M911.13 245.565H914.07V246.622H906.45V245.565H909.85V234.356L906.61 236.291L906.05 235.393L910.05 232.92H911.13V245.565Z" fill="url(#paint58_linear_122_130)"/>
<path d="M911.13 268.357H914.07V269.414H906.45V268.357H909.85V257.149L906.61 259.084L906.05 258.186L910.05 255.713H911.13V268.357Z" fill="url(#paint59_linear_122_130)"/>
<path d="M947.07 27.5856C948.497 27.5856 949.577 28.1906 950.31 29.4005C951.057 30.5971 951.43 32.3389 951.43 34.6257C951.43 36.9126 951.057 38.661 950.31 39.8709C949.577 41.0808 948.497 41.6858 947.07 41.6858C945.657 41.6858 944.577 41.0808 943.83 39.8709C943.084 38.661 942.71 36.9126 942.71 34.6257C942.71 32.3522 943.084 30.6104 943.83 29.4005C944.577 28.1906 945.657 27.5856 947.07 27.5856ZM944.13 34.6257C944.13 36.2478 944.277 37.5176 944.57 38.435L949.01 29.5999C948.543 28.975 947.897 28.6626 947.07 28.6626C946.15 28.6626 945.43 29.1545 944.91 30.1384C944.39 31.109 944.13 32.6048 944.13 34.6257ZM947.07 40.5889C948.003 40.5889 948.73 40.1036 949.25 39.133C949.77 38.1491 950.03 36.6467 950.03 34.6257C950.03 32.9106 949.863 31.581 949.53 30.637L945.09 39.5518C945.57 40.2432 946.23 40.5889 947.07 40.5889Z" fill="url(#paint60_linear_122_130)"/>
<path d="M948.27 63.2221H951.21V64.2792H943.59V63.2221H946.99V52.0138L943.75 53.9483L943.19 53.0509L947.19 50.5778H948.27V63.2221Z" fill="url(#paint61_linear_122_130)"/>
<path d="M947.07 73.1712C948.497 73.1712 949.577 73.7762 950.31 74.9861C951.057 76.1827 951.43 77.9245 951.43 80.2113C951.43 82.4982 951.057 84.2466 950.31 85.4565C949.577 86.6664 948.497 87.2714 947.07 87.2714C945.657 87.2714 944.577 86.6664 943.83 85.4565C943.084 84.2466 942.71 82.4982 942.71 80.2113C942.71 77.9378 943.084 76.196 943.83 74.9861C944.577 73.7762 945.657 73.1712 947.07 73.1712ZM944.13 80.2113C944.13 81.8334 944.277 83.1032 944.57 84.0206L949.01 75.1855C948.543 74.5606 947.897 74.2482 947.07 74.2482C946.15 74.2482 945.43 74.7401 944.91 75.724C944.39 76.6946 944.13 78.1904 944.13 80.2113ZM947.07 86.1745C948.003 86.1745 948.73 85.6892 949.25 84.7186C949.77 83.7347 950.03 82.2323 950.03 80.2113C950.03 78.4962 949.863 77.1666 949.53 76.2226L945.09 85.1374C945.57 85.8288 946.23 86.1745 947.07 86.1745Z" fill="url(#paint62_linear_122_130)"/>
<path d="M947.07 95.964C948.497 95.964 949.577 96.569 950.31 97.7789C951.057 98.9755 951.43 100.717 951.43 103.004C951.43 105.291 951.057 107.039 950.31 108.249C949.577 109.459 948.497 110.064 947.07 110.064C945.657 110.064 944.577 109.459 943.83 108.249C943.084 107.039 942.71 105.291 942.71 103.004C942.71 100.731 943.084 98.9888 943.83 97.7789C944.577 96.569 945.657 95.964 947.07 95.964ZM944.13 103.004C944.13 104.626 944.277 105.896 944.57 106.813L949.01 97.9783C948.543 97.3534 947.897 97.041 947.07 97.041C946.15 97.041 945.43 97.5329 944.91 98.5168C944.39 99.4874 944.13 100.983 944.13 103.004ZM947.07 108.967C948.003 108.967 948.73 108.482 949.25 107.511C949.77 106.528 950.03 105.025 950.03 103.004C950.03 101.289 949.863 99.9594 949.53 99.0154L945.09 107.93C945.57 108.622 946.23 108.967 947.07 108.967Z" fill="url(#paint63_linear_122_130)"/>
<path d="M948.27 131.601H951.21V132.658H943.59V131.601H946.99V120.392L943.75 122.327L943.19 121.429L947.19 118.956H948.27V131.601Z" fill="url(#paint64_linear_122_130)"/>
<path d="M947.07 141.55C948.497 141.55 949.577 142.155 950.31 143.365C951.057 144.561 951.43 146.303 951.43 148.59C951.43 150.877 951.057 152.625 950.31 153.835C949.577 155.045 948.497 155.65 947.07 155.65C945.657 155.65 944.577 155.045 943.83 153.835C943.084 152.625 942.71 150.877 942.71 148.59C942.71 146.316 943.084 144.574 943.83 143.365C944.577 142.155 945.657 141.55 947.07 141.55ZM944.13 148.59C944.13 150.212 944.277 151.482 944.57 152.399L949.01 143.564C948.543 142.939 947.897 142.627 947.07 142.627C946.15 142.627 945.43 143.119 944.91 144.102C944.39 145.073 944.13 146.569 944.13 148.59ZM947.07 154.553C948.003 154.553 948.73 154.068 949.25 153.097C949.77 152.113 950.03 150.611 950.03 148.59C950.03 146.875 949.863 145.545 949.53 144.601L945.09 153.516C945.57 154.207 946.23 154.553 947.07 154.553Z" fill="url(#paint65_linear_122_130)"/>
<path d="M948.27 177.186H951.21V178.243H943.59V177.186H946.99V165.978L943.75 167.912L943.19 167.015L947.19 164.542H948.27V177.186Z" fill="url(#paint66_linear_122_130)"/>
<path d="M947.07 187.135C948.497 187.135 949.577 187.74 950.31 188.95C951.057 190.147 951.43 191.888 951.43 194.175C951.43 196.462 951.057 198.211 950.31 199.421C949.577 200.63 948.497 201.235 947.07 201.235C945.657 201.235 944.577 200.63 943.83 199.421C943.084 198.211 942.71 196.462 942.71 194.175C942.71 191.902 943.084 190.16 943.83 188.95C944.577 187.74 945.657 187.135 947.07 187.135ZM944.13 194.175C944.13 195.797 944.277 197.067 944.57 197.985L949.01 189.15C948.543 188.525 947.897 188.212 947.07 188.212C946.15 188.212 945.43 188.704 944.91 189.688C944.39 190.659 944.13 192.154 944.13 194.175ZM947.07 200.139C948.003 200.139 948.73 199.653 949.25 198.683C949.77 197.699 950.03 196.196 950.03 194.175C950.03 192.46 949.863 191.131 949.53 190.187L945.09 199.101C945.57 199.793 946.23 200.139 947.07 200.139Z" fill="url(#paint67_linear_122_130)"/>
<path d="M947.07 209.928C948.497 209.928 949.577 210.533 950.31 211.743C951.057 212.94 951.43 214.681 951.43 216.968C951.43 219.255 951.057 221.003 950.31 222.213C949.577 223.423 948.497 224.028 947.07 224.028C945.657 224.028 944.577 223.423 943.83 222.213C943.084 221.003 942.71 219.255 942.71 216.968C942.71 214.695 943.084 212.953 943.83 211.743C944.577 210.533 945.657 209.928 947.07 209.928ZM944.13 216.968C944.13 218.59 944.277 219.86 944.57 220.777L949.01 211.942C948.543 211.317 947.897 211.005 947.07 211.005C946.15 211.005 945.43 211.497 944.91 212.481C944.39 213.451 944.13 214.947 944.13 216.968ZM947.07 222.931C948.003 222.931 948.73 222.446 949.25 221.475C949.77 220.492 950.03 218.989 950.03 216.968C950.03 215.253 949.863 213.923 949.53 212.979L945.09 221.894C945.57 222.586 946.23 222.931 947.07 222.931Z" fill="url(#paint68_linear_122_130)"/>
<path d="M948.27 245.565H951.21V246.622H943.59V245.565H946.99V234.356L943.75 236.291L943.19 235.393L947.19 232.92H948.27V245.565Z" fill="url(#paint69_linear_122_130)"/>
<path d="M947.07 255.514C948.497 255.514 949.577 256.119 950.31 257.329C951.057 258.525 951.43 260.267 951.43 262.554C951.43 264.841 951.057 266.589 950.31 267.799C949.577 269.009 948.497 269.614 947.07 269.614C945.657 269.614 944.577 269.009 943.83 267.799C943.084 266.589 942.71 264.841 942.71 262.554C942.71 260.28 943.084 258.538 943.83 257.329C944.577 256.119 945.657 255.514 947.07 255.514ZM944.13 262.554C944.13 264.176 944.277 265.446 944.57 266.363L949.01 257.528C948.543 256.903 947.897 256.591 947.07 256.591C946.15 256.591 945.43 257.083 944.91 258.066C944.39 259.037 944.13 260.533 944.13 262.554ZM947.07 268.517C948.003 268.517 948.73 268.032 949.25 267.061C949.77 266.077 950.03 264.575 950.03 262.554C950.03 260.839 949.863 259.509 949.53 258.565L945.09 267.48C945.57 268.171 946.23 268.517 947.07 268.517Z" fill="url(#paint70_linear_122_130)"/>
<path d="M948.27 291.15H951.21V292.207H943.59V291.15H946.99V279.942L943.75 281.876L943.19 280.979L947.19 278.506H948.27V291.15Z" fill="url(#paint71_linear_122_130)"/>
<path d="M948.27 313.943H951.21V315H943.59V313.943H946.99V302.735L943.75 304.669L943.19 303.772L947.19 301.299H948.27V313.943Z" fill="url(#paint72_linear_122_130)"/>
<path d="M891.36 50.3784C892.786 50.3784 893.866 50.9834 894.599 52.1933C895.346 53.3899 895.719 55.1317 895.719 57.4185C895.719 59.7054 895.346 61.4538 894.599 62.6637C893.866 63.8736 892.786 64.4786 891.36 64.4786C889.946 64.4786 888.867 63.8736 888.12 62.6637C887.373 61.4538 887 59.7054 887 57.4185C887 55.145 887.373 53.4032 888.12 52.1933C888.867 50.9834 889.946 50.3784 891.36 50.3784ZM888.42 57.4185C888.42 59.0406 888.567 60.3104 888.86 61.2278L893.3 52.3927C892.833 51.7678 892.186 51.4554 891.36 51.4554C890.44 51.4554 889.72 51.9473 889.2 52.9312C888.68 53.9018 888.42 55.3976 888.42 57.4185ZM891.36 63.3817C892.293 63.3817 893.02 62.8964 893.54 61.9258C894.06 60.9419 894.319 59.4395 894.319 57.4185C894.319 55.7034 894.153 54.3738 893.82 53.4298L889.38 62.3446C889.86 63.036 890.52 63.3817 891.36 63.3817Z" fill="url(#paint73_linear_122_130)"/>
<path d="M891.36 73.1712C892.786 73.1712 893.866 73.7762 894.599 74.9861C895.346 76.1827 895.719 77.9245 895.719 80.2113C895.719 82.4982 895.346 84.2466 894.599 85.4565C893.866 86.6664 892.786 87.2714 891.36 87.2714C889.946 87.2714 888.867 86.6664 888.12 85.4565C887.373 84.2466 887 82.4982 887 80.2113C887 77.9378 887.373 76.196 888.12 74.9861C888.867 73.7762 889.946 73.1712 891.36 73.1712ZM888.42 80.2113C888.42 81.8334 888.567 83.1032 888.86 84.0206L893.3 75.1855C892.833 74.5606 892.186 74.2482 891.36 74.2482C890.44 74.2482 889.72 74.7401 889.2 75.724C888.68 76.6946 888.42 78.1904 888.42 80.2113ZM891.36 86.1745C892.293 86.1745 893.02 85.6892 893.54 84.7186C894.06 83.7347 894.319 82.2323 894.319 80.2113C894.319 78.4962 894.153 77.1666 893.82 76.2226L889.38 85.1374C889.86 85.8288 890.52 86.1745 891.36 86.1745Z" fill="url(#paint74_linear_122_130)"/>
<path d="M892.56 108.808H895.499V109.865H887.88V108.808H891.28V97.5994L888.04 99.5339L887.48 98.6365L891.48 96.1635H892.56V108.808Z" fill="url(#paint75_linear_122_130)"/>
<path d="M891.36 118.757C892.786 118.757 893.866 119.362 894.599 120.572C895.346 121.768 895.719 123.51 895.719 125.797C895.719 128.084 895.346 129.832 894.599 131.042C893.866 132.252 892.786 132.857 891.36 132.857C889.946 132.857 888.867 132.252 888.12 131.042C887.373 129.832 887 128.084 887 125.797C887 123.523 887.373 121.782 888.12 120.572C888.867 119.362 889.946 118.757 891.36 118.757ZM888.42 125.797C888.42 127.419 888.567 128.689 888.86 129.606L893.3 120.771C892.833 120.146 892.186 119.834 891.36 119.834C890.44 119.834 889.72 120.326 889.2 121.31C888.68 122.28 888.42 123.776 888.42 125.797ZM891.36 131.76C892.293 131.76 893.02 131.275 893.54 130.304C894.06 129.32 894.319 127.818 894.319 125.797C894.319 124.082 894.153 122.752 893.82 121.808L889.38 130.723C889.86 131.414 890.52 131.76 891.36 131.76Z" fill="url(#paint76_linear_122_130)"/>
<path d="M892.56 154.393H895.499V155.45H887.88V154.393H891.28V143.185L888.04 145.12L887.48 144.222L891.48 141.749H892.56V154.393Z" fill="url(#paint77_linear_122_130)"/>
<path d="M892.56 177.186H895.499V178.243H887.88V177.186H891.28V165.978L888.04 167.912L887.48 167.015L891.48 164.542H892.56V177.186Z" fill="url(#paint78_linear_122_130)"/>
<path d="M929.7 17.6365H932.64V18.6936H925.02V17.6365H928.42V6.42819L925.18 8.36273L924.62 7.46526L928.62 4.99224H929.7V17.6365Z" fill="url(#paint79_linear_122_130)"/>
<path d="M928.5 27.5856C929.927 27.5856 931.006 28.1906 931.74 29.4005C932.486 30.5971 932.86 32.3389 932.86 34.6257C932.86 36.9126 932.486 38.661 931.74 39.8709C931.006 41.0808 929.927 41.6858 928.5 41.6858C927.087 41.6858 926.007 41.0808 925.26 39.8709C924.514 38.661 924.14 36.9126 924.14 34.6257C924.14 32.3522 924.514 30.6104 925.26 29.4005C926.007 28.1906 927.087 27.5856 928.5 27.5856ZM925.56 34.6257C925.56 36.2478 925.707 37.5176 926 38.435L930.44 29.5999C929.973 28.975 929.327 28.6626 928.5 28.6626C927.58 28.6626 926.86 29.1545 926.34 30.1384C925.82 31.109 925.56 32.6048 925.56 34.6257ZM928.5 40.5889C929.433 40.5889 930.16 40.1036 930.68 39.133C931.2 38.1491 931.46 36.6467 931.46 34.6257C931.46 32.9106 931.293 31.581 930.96 30.637L926.52 39.5518C927 40.2432 927.66 40.5889 928.5 40.5889Z" fill="url(#paint80_linear_122_130)"/>
<path d="M929.7 63.2221H932.64V64.2792H925.02V63.2221H928.42V52.0138L925.18 53.9483L924.62 53.0509L928.62 50.5778H929.7V63.2221Z" fill="url(#paint81_linear_122_130)"/>
<path d="M929.7 86.015H932.64V87.072H925.02V86.015H928.42V74.8066L925.18 76.7411L924.62 75.8437L928.62 73.3706H929.7V86.015Z" fill="url(#paint82_linear_122_130)"/>
<path d="M928.5 95.964C929.927 95.964 931.006 96.569 931.74 97.7789C932.486 98.9755 932.86 100.717 932.86 103.004C932.86 105.291 932.486 107.039 931.74 108.249C931.006 109.459 929.927 110.064 928.5 110.064C927.087 110.064 926.007 109.459 925.26 108.249C924.514 107.039 924.14 105.291 924.14 103.004C924.14 100.731 924.514 98.9888 925.26 97.7789C926.007 96.569 927.087 95.964 928.5 95.964ZM925.56 103.004C925.56 104.626 925.707 105.896 926 106.813L930.44 97.9783C929.973 97.3534 929.327 97.041 928.5 97.041C927.58 97.041 926.86 97.5329 926.34 98.5168C925.82 99.4874 925.56 100.983 925.56 103.004ZM928.5 108.967C929.433 108.967 930.16 108.482 930.68 107.511C931.2 106.528 931.46 105.025 931.46 103.004C931.46 101.289 931.293 99.9594 930.96 99.0154L926.52 107.93C927 108.622 927.66 108.967 928.5 108.967Z" fill="url(#paint83_linear_122_130)"/>
<path d="M929.7 131.601H932.64V132.658H925.02V131.601H928.42V120.392L925.18 122.327L924.62 121.429L928.62 118.956H929.7V131.601Z" fill="url(#paint84_linear_122_130)"/>
<path d="M929.7 154.393H932.64V155.45H925.02V154.393H928.42V143.185L925.18 145.12L924.62 144.222L928.62 141.749H929.7V154.393Z" fill="url(#paint85_linear_122_130)"/>
<path d="M928.5 164.342C929.927 164.342 931.006 164.947 931.74 166.157C932.486 167.354 932.86 169.096 932.86 171.383C932.86 173.669 932.486 175.418 931.74 176.628C931.006 177.838 929.927 178.443 928.5 178.443C927.087 178.443 926.007 177.838 925.26 176.628C924.514 175.418 924.14 173.669 924.14 171.383C924.14 169.109 924.514 167.367 925.26 166.157C926.007 164.947 927.087 164.342 928.5 164.342ZM925.56 171.383C925.56 173.005 925.707 174.274 926 175.192L930.44 166.357C929.973 165.732 929.327 165.419 928.5 165.419C927.58 165.419 926.86 165.911 926.34 166.895C925.82 167.866 925.56 169.362 925.56 171.383ZM928.5 177.346C929.433 177.346 930.16 176.86 930.68 175.89C931.2 174.906 931.46 173.404 931.46 171.383C931.46 169.667 931.293 168.338 930.96 167.394L926.52 176.309C927 177 927.66 177.346 928.5 177.346Z" fill="url(#paint86_linear_122_130)"/>
<path d="M929.7 199.979H932.64V201.036H925.02V199.979H928.42V188.771L925.18 190.705L924.62 189.808L928.62 187.335H929.7V199.979Z" fill="url(#paint87_linear_122_130)"/>
<path d="M928.5 209.928C929.927 209.928 931.006 210.533 931.74 211.743C932.486 212.94 932.86 214.681 932.86 216.968C932.86 219.255 932.486 221.003 931.74 222.213C931.006 223.423 929.927 224.028 928.5 224.028C927.087 224.028 926.007 223.423 925.26 222.213C924.514 221.003 924.14 219.255 924.14 216.968C924.14 214.695 924.514 212.953 925.26 211.743C926.007 210.533 927.087 209.928 928.5 209.928ZM925.56 216.968C925.56 218.59 925.707 219.86 926 220.777L930.44 211.942C929.973 211.317 929.327 211.005 928.5 211.005C927.58 211.005 926.86 211.497 926.34 212.481C925.82 213.451 925.56 214.947 925.56 216.968ZM928.5 222.931C929.433 222.931 930.16 222.446 930.68 221.475C931.2 220.492 931.46 218.989 931.46 216.968C931.46 215.253 931.293 213.923 930.96 212.979L926.52 221.894C927 222.586 927.66 222.931 928.5 222.931Z" fill="url(#paint88_linear_122_130)"/>
<path d="M965.64 4.7928C967.067 4.7928 968.147 5.39776 968.88 6.60768C969.627 7.8043 970 9.54605 970 11.8329C970 14.1198 969.627 15.8682 968.88 17.0781C968.147 18.288 967.067 18.893 965.64 18.893C964.227 18.893 963.147 18.288 962.401 17.0781C961.654 15.8682 961.281 14.1198 961.281 11.8329C961.281 9.55935 961.654 7.8176 962.401 6.60768C963.147 5.39776 964.227 4.7928 965.64 4.7928ZM962.7 11.8329C962.7 13.455 962.847 14.7248 963.14 15.6422L967.58 6.80712C967.114 6.18221 966.467 5.86976 965.64 5.86976C964.72 5.86976 964 6.36171 963.48 7.3456C962.96 8.31619 962.7 9.81197 962.7 11.8329ZM965.64 17.7961C966.574 17.7961 967.3 17.3108 967.82 16.3402C968.34 15.3563 968.6 13.8539 968.6 11.8329C968.6 10.1178 968.433 8.78819 968.1 7.84419L963.66 16.759C964.14 17.4504 964.8 17.7961 965.64 17.7961Z" fill="url(#paint89_linear_122_130)"/>
<path d="M966.84 40.4293H969.78V41.4864H962.161V40.4293H965.56V29.221L962.321 31.1555L961.761 30.2581L965.76 27.785H966.84V40.4293Z" fill="url(#paint90_linear_122_130)"/>
<path d="M966.84 63.2221H969.78V64.2792H962.161V63.2221H965.56V52.0138L962.321 53.9483L961.761 53.0509L965.76 50.5778H966.84V63.2221Z" fill="url(#paint91_linear_122_130)"/>
<path d="M965.64 73.1712C967.067 73.1712 968.147 73.7762 968.88 74.9861C969.627 76.1827 970 77.9245 970 80.2113C970 82.4982 969.627 84.2466 968.88 85.4565C968.147 86.6664 967.067 87.2714 965.64 87.2714C964.227 87.2714 963.147 86.6664 962.401 85.4565C961.654 84.2466 961.281 82.4982 961.281 80.2113C961.281 77.9378 961.654 76.196 962.401 74.9861C963.147 73.7762 964.227 73.1712 965.64 73.1712ZM962.7 80.2113C962.7 81.8334 962.847 83.1032 963.14 84.0206L967.58 75.1855C967.114 74.5606 966.467 74.2482 965.64 74.2482C964.72 74.2482 964 74.7401 963.48 75.724C962.96 76.6946 962.7 78.1904 962.7 80.2113ZM965.64 86.1745C966.574 86.1745 967.3 85.6892 967.82 84.7186C968.34 83.7347 968.6 82.2323 968.6 80.2113C968.6 78.4962 968.433 77.1666 968.1 76.2226L963.66 85.1374C964.14 85.8288 964.8 86.1745 965.64 86.1745Z" fill="url(#paint92_linear_122_130)"/>
<path d="M965.64 95.964C967.067 95.964 968.147 96.569 968.88 97.7789C969.627 98.9755 970 100.717 970 103.004C970 105.291 969.627 107.039 968.88 108.249C968.147 109.459 967.067 110.064 965.64 110.064C964.227 110.064 963.147 109.459 962.401 108.249C961.654 107.039 961.281 105.291 961.281 103.004C961.281 100.731 961.654 98.9888 962.401 97.7789C963.147 96.569 964.227 95.964 965.64 95.964ZM962.7 103.004C962.7 104.626 962.847 105.896 963.14 106.813L967.58 97.9783C967.114 97.3534 966.467 97.041 965.64 97.041C964.72 97.041 964 97.5329 963.48 98.5168C962.96 99.4874 962.7 100.983 962.7 103.004ZM965.64 108.967C966.574 108.967 967.3 108.482 967.82 107.511C968.34 106.528 968.6 105.025 968.6 103.004C968.6 101.289 968.433 99.9594 968.1 99.0154L963.66 107.93C964.14 108.622 964.8 108.967 965.64 108.967Z" fill="url(#paint93_linear_122_130)"/>
</g>
</g>
<defs>
<filter id="filter0_f_122_130" x="-568.19" y="-704.19" width="2141.38" height="1500.38" filterUnits="userSpaceOnUse" color-interpolation-filters="sRGB">
<feFlood flood-opacity="0" result="BackgroundImageFix"/>
<feBlend mode="normal" in="SourceGraphic" in2="BackgroundImageFix" result="shape"/>
<feGaussianBlur stdDeviation="200.095" result="effect1_foregroundBlur_122_130"/>
</filter>
<linearGradient id="paint0_linear_122_130" x1="42.5" y1="282" x2="42.5" y2="593.381" gradientUnits="userSpaceOnUse">
<stop stop-color="#F7DD43"/>
<stop offset="1" stop-color="#F7DD43" stop-opacity="0"/>
</linearGradient>
<linearGradient id="paint1_linear_122_130" x1="42.5" y1="282" x2="42.5" y2="593.381" gradientUnits="userSpaceOnUse">
<stop stop-color="#F7DD43"/>
<stop offset="1" stop-color="#F7DD43" stop-opacity="0"/>
</linearGradient>
<linearGradient id="paint2_linear_122_130" x1="42.5" y1="282" x2="42.5" y2="593.381" gradientUnits="userSpaceOnUse">
<stop stop-color="#F7DD43"/>
<stop offset="1" stop-color="#F7DD43" stop-opacity="0"/>
</linearGradient>
<linearGradient id="paint3_linear_122_130" x1="42.5" y1="282" x2="42.5" y2="593.381" gradientUnits="userSpaceOnUse">
<stop stop-color="#F7DD43"/>
<stop offset="1" stop-color="#F7DD43" stop-opacity="0"/>
</linearGradient>
<linearGradient id="paint4_linear_122_130" x1="42.5" y1="282" x2="42.5" y2="593.381" gradientUnits="userSpaceOnUse">
<stop stop-color="#F7DD43"/>
<stop offset="1" stop-color="#F7DD43" stop-opacity="0"/>
</linearGradient>
<linearGradient id="paint5_linear_122_130" x1="42.5" y1="282" x2="42.5" y2="593.381" gradientUnits="userSpaceOnUse">
<stop stop-color="#F7DD43"/>
<stop offset="1" stop-color="#F7DD43" stop-opacity="0"/>
</linearGradient>
<linearGradient id="paint6_linear_122_130" x1="42.5" y1="282" x2="42.5" y2="593.381" gradientUnits="userSpaceOnUse">
<stop stop-color="#F7DD43"/>
<stop offset="1" stop-color="#F7DD43" stop-opacity="0"/>
</linearGradient>
<linearGradient id="paint7_linear_122_130" x1="42.5" y1="282" x2="42.5" y2="593.381" gradientUnits="userSpaceOnUse">
<stop stop-color="#F7DD43"/>
<stop offset="1" stop-color="#F7DD43" stop-opacity="0"/>
</linearGradient>
<linearGradient id="paint8_linear_122_130" x1="42.5" y1="282" x2="42.5" y2="593.381" gradientUnits="userSpaceOnUse">
<stop stop-color="#F7DD43"/>
<stop offset="1" stop-color="#F7DD43" stop-opacity="0"/>
</linearGradient>
<linearGradient id="paint9_linear_122_130" x1="42.5" y1="282" x2="42.5" y2="593.381" gradientUnits="userSpaceOnUse">
<stop stop-color="#F7DD43"/>
<stop offset="1" stop-color="#F7DD43" stop-opacity="0"/>
</linearGradient>
<linearGradient id="paint10_linear_122_130" x1="42.5" y1="282" x2="42.5" y2="593.381" gradientUnits="userSpaceOnUse">
<stop stop-color="#F7DD43"/>
<stop offset="1" stop-color="#F7DD43" stop-opacity="0"/>
</linearGradient>
<linearGradient id="paint11_linear_122_130" x1="42.5" y1="282" x2="42.5" y2="593.381" gradientUnits="userSpaceOnUse">
<stop stop-color="#F7DD43"/>
<stop offset="1" stop-color="#F7DD43" stop-opacity="0"/>
</linearGradient>
<linearGradient id="paint12_linear_122_130" x1="42.5" y1="282" x2="42.5" y2="593.381" gradientUnits="userSpaceOnUse">
<stop stop-color="#F7DD43"/>
<stop offset="1" stop-color="#F7DD43" stop-opacity="0"/>
</linearGradient>
<linearGradient id="paint13_linear_122_130" x1="42.5" y1="282" x2="42.5" y2="593.381" gradientUnits="userSpaceOnUse">
<stop stop-color="#F7DD43"/>
<stop offset="1" stop-color="#F7DD43" stop-opacity="0"/>
</linearGradient>
<linearGradient id="paint14_linear_122_130" x1="42.5" y1="282" x2="42.5" y2="593.381" gradientUnits="userSpaceOnUse">
<stop stop-color="#F7DD43"/>
<stop offset="1" stop-color="#F7DD43" stop-opacity="0"/>
</linearGradient>
<linearGradient id="paint15_linear_122_130" x1="42.5" y1="282" x2="42.5" y2="593.381" gradientUnits="userSpaceOnUse">
<stop stop-color="#F7DD43"/>
<stop offset="1" stop-color="#F7DD43" stop-opacity="0"/>
</linearGradient>
<linearGradient id="paint16_linear_122_130" x1="42.5" y1="282" x2="42.5" y2="593.381" gradientUnits="userSpaceOnUse">
<stop stop-color="#F7DD43"/>
<stop offset="1" stop-color="#F7DD43" stop-opacity="0"/>
</linearGradient>
<linearGradient id="paint17_linear_122_130" x1="42.5" y1="282" x2="42.5" y2="593.381" gradientUnits="userSpaceOnUse">
<stop stop-color="#F7DD43"/>
<stop offset="1" stop-color="#F7DD43" stop-opacity="0"/>
</linearGradient>
<linearGradient id="paint18_linear_122_130" x1="42.5" y1="282" x2="42.5" y2="593.381" gradientUnits="userSpaceOnUse">
<stop stop-color="#F7DD43"/>
<stop offset="1" stop-color="#F7DD43" stop-opacity="0"/>
</linearGradient>
<linearGradient id="paint19_linear_122_130" x1="42.5" y1="282" x2="42.5" y2="593.381" gradientUnits="userSpaceOnUse">
<stop stop-color="#F7DD43"/>
<stop offset="1" stop-color="#F7DD43" stop-opacity="0"/>
</linearGradient>
<linearGradient id="paint20_linear_122_130" x1="42.5" y1="282" x2="42.5" y2="593.381" gradientUnits="userSpaceOnUse">
<stop stop-color="#F7DD43"/>
<stop offset="1" stop-color="#F7DD43" stop-opacity="0"/>
</linearGradient>
<linearGradient id="paint21_linear_122_130" x1="42.5" y1="282" x2="42.5" y2="593.381" gradientUnits="userSpaceOnUse">
<stop stop-color="#F7DD43"/>
<stop offset="1" stop-color="#F7DD43" stop-opacity="0"/>
</linearGradient>
<linearGradient id="paint22_linear_122_130" x1="42.5" y1="282" x2="42.5" y2="593.381" gradientUnits="userSpaceOnUse">
<stop stop-color="#F7DD43"/>
<stop offset="1" stop-color="#F7DD43" stop-opacity="0"/>
</linearGradient>
<linearGradient id="paint23_linear_122_130" x1="42.5" y1="282" x2="42.5" y2="593.381" gradientUnits="userSpaceOnUse">
<stop stop-color="#F7DD43"/>
<stop offset="1" stop-color="#F7DD43" stop-opacity="0"/>
</linearGradient>
<linearGradient id="paint24_linear_122_130" x1="42.5" y1="282" x2="42.5" y2="593.381" gradientUnits="userSpaceOnUse">
<stop stop-color="#F7DD43"/>
<stop offset="1" stop-color="#F7DD43" stop-opacity="0"/>
</linearGradient>
<linearGradient id="paint25_linear_122_130" x1="42.5" y1="282" x2="42.5" y2="593.381" gradientUnits="userSpaceOnUse">
<stop stop-color="#F7DD43"/>
<stop offset="1" stop-color="#F7DD43" stop-opacity="0"/>
</linearGradient>
<linearGradient id="paint26_linear_122_130" x1="42.5" y1="282" x2="42.5" y2="593.381" gradientUnits="userSpaceOnUse">
<stop stop-color="#F7DD43"/>
<stop offset="1" stop-color="#F7DD43" stop-opacity="0"/>
</linearGradient>
<linearGradient id="paint27_linear_122_130" x1="42.5" y1="282" x2="42.5" y2="593.381" gradientUnits="userSpaceOnUse">
<stop stop-color="#F7DD43"/>
<stop offset="1" stop-color="#F7DD43" stop-opacity="0"/>
</linearGradient>
<linearGradient id="paint28_linear_122_130" x1="42.5" y1="282" x2="42.5" y2="593.381" gradientUnits="userSpaceOnUse">
<stop stop-color="#F7DD43"/>
<stop offset="1" stop-color="#F7DD43" stop-opacity="0"/>
</linearGradient>
<linearGradient id="paint29_linear_122_130" x1="42.5" y1="282" x2="42.5" y2="593.381" gradientUnits="userSpaceOnUse">
<stop stop-color="#F7DD43"/>
<stop offset="1" stop-color="#F7DD43" stop-opacity="0"/>
</linearGradient>
<linearGradient id="paint30_linear_122_130" x1="42.5" y1="282" x2="42.5" y2="593.381" gradientUnits="userSpaceOnUse">
<stop stop-color="#F7DD43"/>
<stop offset="1" stop-color="#F7DD43" stop-opacity="0"/>
</linearGradient>
<linearGradient id="paint31_linear_122_130" x1="42.5" y1="282" x2="42.5" y2="593.381" gradientUnits="userSpaceOnUse">
<stop stop-color="#F7DD43"/>
<stop offset="1" stop-color="#F7DD43" stop-opacity="0"/>
</linearGradient>
<linearGradient id="paint32_linear_122_130" x1="42.5" y1="282" x2="42.5" y2="593.381" gradientUnits="userSpaceOnUse">
<stop stop-color="#F7DD43"/>
<stop offset="1" stop-color="#F7DD43" stop-opacity="0"/>
</linearGradient>
<linearGradient id="paint33_linear_122_130" x1="42.5" y1="282" x2="42.5" y2="593.381" gradientUnits="userSpaceOnUse">
<stop stop-color="#F7DD43"/>
<stop offset="1" stop-color="#F7DD43" stop-opacity="0"/>
</linearGradient>
<linearGradient id="paint34_linear_122_130" x1="42.5" y1="282" x2="42.5" y2="593.381" gradientUnits="userSpaceOnUse">
<stop stop-color="#F7DD43"/>
<stop offset="1" stop-color="#F7DD43" stop-opacity="0"/>
</linearGradient>
<linearGradient id="paint35_linear_122_130" x1="42.5" y1="282" x2="42.5" y2="593.381" gradientUnits="userSpaceOnUse">
<stop stop-color="#F7DD43"/>
<stop offset="1" stop-color="#F7DD43" stop-opacity="0"/>
</linearGradient>
<linearGradient id="paint36_linear_122_130" x1="42.5" y1="282" x2="42.5" y2="593.381" gradientUnits="userSpaceOnUse">
<stop stop-color="#F7DD43"/>
<stop offset="1" stop-color="#F7DD43" stop-opacity="0"/>
</linearGradient>
<linearGradient id="paint37_linear_122_130" x1="42.5" y1="282" x2="42.5" y2="593.381" gradientUnits="userSpaceOnUse">
<stop stop-color="#F7DD43"/>
<stop offset="1" stop-color="#F7DD43" stop-opacity="0"/>
</linearGradient>
<linearGradient id="paint38_linear_122_130" x1="42.5" y1="282" x2="42.5" y2="593.381" gradientUnits="userSpaceOnUse">
<stop stop-color="#F7DD43"/>
<stop offset="1" stop-color="#F7DD43" stop-opacity="0"/>
</linearGradient>
<linearGradient id="paint39_linear_122_130" x1="42.5" y1="282" x2="42.5" y2="593.381" gradientUnits="userSpaceOnUse">
<stop stop-color="#F7DD43"/>
<stop offset="1" stop-color="#F7DD43" stop-opacity="0"/>
</linearGradient>
<linearGradient id="paint40_linear_122_130" x1="42.5" y1="282" x2="42.5" y2="593.381" gradientUnits="userSpaceOnUse">
<stop stop-color="#F7DD43"/>
<stop offset="1" stop-color="#F7DD43" stop-opacity="0"/>
</linearGradient>
<linearGradient id="paint41_linear_122_130" x1="42.5" y1="282" x2="42.5" y2="593.381" gradientUnits="userSpaceOnUse">
<stop stop-color="#F7DD43"/>
<stop offset="1" stop-color="#F7DD43" stop-opacity="0"/>
</linearGradient>
<linearGradient id="paint42_linear_122_130" x1="42.5" y1="282" x2="42.5" y2="593.381" gradientUnits="userSpaceOnUse">
<stop stop-color="#F7DD43"/>
<stop offset="1" stop-color="#F7DD43" stop-opacity="0"/>
</linearGradient>
<linearGradient id="paint43_linear_122_130" x1="42.5" y1="282" x2="42.5" y2="593.381" gradientUnits="userSpaceOnUse">
<stop stop-color="#F7DD43"/>
<stop offset="1" stop-color="#F7DD43" stop-opacity="0"/>
</linearGradient>
<linearGradient id="paint44_linear_122_130" x1="42.5" y1="282" x2="42.5" y2="593.381" gradientUnits="userSpaceOnUse">
<stop stop-color="#F7DD43"/>
<stop offset="1" stop-color="#F7DD43" stop-opacity="0"/>
</linearGradient>
<linearGradient id="paint45_linear_122_130" x1="42.5" y1="282" x2="42.5" y2="593.381" gradientUnits="userSpaceOnUse">
<stop stop-color="#F7DD43"/>
<stop offset="1" stop-color="#F7DD43" stop-opacity="0"/>
</linearGradient>
<linearGradient id="paint46_linear_122_130" x1="42.5" y1="282" x2="42.5" y2="593.381" gradientUnits="userSpaceOnUse">
<stop stop-color="#F7DD43"/>
<stop offset="1" stop-color="#F7DD43" stop-opacity="0"/>
</linearGradient>
<linearGradient id="paint47_linear_122_130" x1="928.5" y1="-18" x2="928.5" y2="280.818" gradientUnits="userSpaceOnUse">
<stop stop-color="#F7DD43"/>
<stop offset="1" stop-color="#F7DD43" stop-opacity="0"/>
</linearGradient>
<linearGradient id="paint48_linear_122_130" x1="928.5" y1="-18" x2="928.5" y2="280.818" gradientUnits="userSpaceOnUse">
<stop stop-color="#F7DD43"/>
<stop offset="1" stop-color="#F7DD43" stop-opacity="0"/>
</linearGradient>
<linearGradient id="paint49_linear_122_130" x1="928.5" y1="-18" x2="928.5" y2="280.818" gradientUnits="userSpaceOnUse">
<stop stop-color="#F7DD43"/>
<stop offset="1" stop-color="#F7DD43" stop-opacity="0"/>
</linearGradient>
<linearGradient id="paint50_linear_122_130" x1="928.5" y1="-18" x2="928.5" y2="280.818" gradientUnits="userSpaceOnUse">
<stop stop-color="#F7DD43"/>
<stop offset="1" stop-color="#F7DD43" stop-opacity="0"/>
</linearGradient>
<linearGradient id="paint51_linear_122_130" x1="928.5" y1="-18" x2="928.5" y2="280.818" gradientUnits="userSpaceOnUse">
<stop stop-color="#F7DD43"/>
<stop offset="1" stop-color="#F7DD43" stop-opacity="0"/>
</linearGradient>
<linearGradient id="paint52_linear_122_130" x1="928.5" y1="-18" x2="928.5" y2="280.818" gradientUnits="userSpaceOnUse">
<stop stop-color="#F7DD43"/>
<stop offset="1" stop-color="#F7DD43" stop-opacity="0"/>
</linearGradient>
<linearGradient id="paint53_linear_122_130" x1="928.5" y1="-18" x2="928.5" y2="280.818" gradientUnits="userSpaceOnUse">
<stop stop-color="#F7DD43"/>
<stop offset="1" stop-color="#F7DD43" stop-opacity="0"/>
</linearGradient>
<linearGradient id="paint54_linear_122_130" x1="928.5" y1="-18" x2="928.5" y2="280.818" gradientUnits="userSpaceOnUse">
<stop stop-color="#F7DD43"/>
<stop offset="1" stop-color="#F7DD43" stop-opacity="0"/>
</linearGradient>
<linearGradient id="paint55_linear_122_130" x1="928.5" y1="-18" x2="928.5" y2="280.818" gradientUnits="userSpaceOnUse">
<stop stop-color="#F7DD43"/>
<stop offset="1" stop-color="#F7DD43" stop-opacity="0"/>
</linearGradient>
<linearGradient id="paint56_linear_122_130" x1="928.5" y1="-18" x2="928.5" y2="280.818" gradientUnits="userSpaceOnUse">
<stop stop-color="#F7DD43"/>
<stop offset="1" stop-color="#F7DD43" stop-opacity="0"/>
</linearGradient>
<linearGradient id="paint57_linear_122_130" x1="928.5" y1="-18" x2="928.5" y2="280.818" gradientUnits="userSpaceOnUse">
<stop stop-color="#F7DD43"/>
<stop offset="1" stop-color="#F7DD43" stop-opacity="0"/>
</linearGradient>
<linearGradient id="paint58_linear_122_130" x1="928.5" y1="-18" x2="928.5" y2="280.818" gradientUnits="userSpaceOnUse">
<stop stop-color="#F7DD43"/>
<stop offset="1" stop-color="#F7DD43" stop-opacity="0"/>
</linearGradient>
<linearGradient id="paint59_linear_122_130" x1="928.5" y1="-18" x2="928.5" y2="280.818" gradientUnits="userSpaceOnUse">
<stop stop-color="#F7DD43"/>
<stop offset="1" stop-color="#F7DD43" stop-opacity="0"/>
</linearGradient>
<linearGradient id="paint60_linear_122_130" x1="928.5" y1="-18" x2="928.5" y2="280.818" gradientUnits="userSpaceOnUse">
<stop stop-color="#F7DD43"/>
<stop offset="1" stop-color="#F7DD43" stop-opacity="0"/>
</linearGradient>
<linearGradient id="paint61_linear_122_130" x1="928.5" y1="-18" x2="928.5" y2="280.818" gradientUnits="userSpaceOnUse">
<stop stop-color="#F7DD43"/>
<stop offset="1" stop-color="#F7DD43" stop-opacity="0"/>
</linearGradient>
<linearGradient id="paint62_linear_122_130" x1="928.5" y1="-18" x2="928.5" y2="280.818" gradientUnits="userSpaceOnUse">
<stop stop-color="#F7DD43"/>
<stop offset="1" stop-color="#F7DD43" stop-opacity="0"/>
</linearGradient>
<linearGradient id="paint63_linear_122_130" x1="928.5" y1="-18" x2="928.5" y2="280.818" gradientUnits="userSpaceOnUse">
<stop stop-color="#F7DD43"/>
<stop offset="1" stop-color="#F7DD43" stop-opacity="0"/>
</linearGradient>
<linearGradient id="paint64_linear_122_130" x1="928.5" y1="-18" x2="928.5" y2="280.818" gradientUnits="userSpaceOnUse">
<stop stop-color="#F7DD43"/>
<stop offset="1" stop-color="#F7DD43" stop-opacity="0"/>
</linearGradient>
<linearGradient id="paint65_linear_122_130" x1="928.5" y1="-18" x2="928.5" y2="280.818" gradientUnits="userSpaceOnUse">
<stop stop-color="#F7DD43"/>
<stop offset="1" stop-color="#F7DD43" stop-opacity="0"/>
</linearGradient>
<linearGradient id="paint66_linear_122_130" x1="928.5" y1="-18" x2="928.5" y2="280.818" gradientUnits="userSpaceOnUse">
<stop stop-color="#F7DD43"/>
<stop offset="1" stop-color="#F7DD43" stop-opacity="0"/>
</linearGradient>
<linearGradient id="paint67_linear_122_130" x1="928.5" y1="-18" x2="928.5" y2="280.818" gradientUnits="userSpaceOnUse">
<stop stop-color="#F7DD43"/>
<stop offset="1" stop-color="#F7DD43" stop-opacity="0"/>
</linearGradient>
<linearGradient id="paint68_linear_122_130" x1="928.5" y1="-18" x2="928.5" y2="280.818" gradientUnits="userSpaceOnUse">
<stop stop-color="#F7DD43"/>
<stop offset="1" stop-color="#F7DD43" stop-opacity="0"/>
</linearGradient>
<linearGradient id="paint69_linear_122_130" x1="928.5" y1="-18" x2="928.5" y2="280.818" gradientUnits="userSpaceOnUse">
<stop stop-color="#F7DD43"/>
<stop offset="1" stop-color="#F7DD43" stop-opacity="0"/>
</linearGradient>
<linearGradient id="paint70_linear_122_130" x1="928.5" y1="-18" x2="928.5" y2="280.818" gradientUnits="userSpaceOnUse">
<stop stop-color="#F7DD43"/>
<stop offset="1" stop-color="#F7DD43" stop-opacity="0"/>
</linearGradient>
<linearGradient id="paint71_linear_122_130" x1="928.5" y1="-18" x2="928.5" y2="280.818" gradientUnits="userSpaceOnUse">
<stop stop-color="#F7DD43"/>
<stop offset="1" stop-color="#F7DD43" stop-opacity="0"/>
</linearGradient>
<linearGradient id="paint72_linear_122_130" x1="928.5" y1="-18" x2="928.5" y2="280.818" gradientUnits="userSpaceOnUse">
<stop stop-color="#F7DD43"/>
<stop offset="1" stop-color="#F7DD43" stop-opacity="0"/>
</linearGradient>
<linearGradient id="paint73_linear_122_130" x1="928.5" y1="-18" x2="928.5" y2="280.818" gradientUnits="userSpaceOnUse">
<stop stop-color="#F7DD43"/>
<stop offset="1" stop-color="#F7DD43" stop-opacity="0"/>
</linearGradient>
<linearGradient id="paint74_linear_122_130" x1="928.5" y1="-18" x2="928.5" y2="280.818" gradientUnits="userSpaceOnUse">
<stop stop-color="#F7DD43"/>
<stop offset="1" stop-color="#F7DD43" stop-opacity="0"/>
</linearGradient>
<linearGradient id="paint75_linear_122_130" x1="928.5" y1="-18" x2="928.5" y2="280.818" gradientUnits="userSpaceOnUse">
<stop stop-color="#F7DD43"/>
<stop offset="1" stop-color="#F7DD43" stop-opacity="0"/>
</linearGradient>
<linearGradient id="paint76_linear_122_130" x1="928.5" y1="-18" x2="928.5" y2="280.818" gradientUnits="userSpaceOnUse">
<stop stop-color="#F7DD43"/>
<stop offset="1" stop-color="#F7DD43" stop-opacity="0"/>
</linearGradient>
<linearGradient id="paint77_linear_122_130" x1="928.5" y1="-18" x2="928.5" y2="280.818" gradientUnits="userSpaceOnUse">
<stop stop-color="#F7DD43"/>
<stop offset="1" stop-color="#F7DD43" stop-opacity="0"/>
</linearGradient>
<linearGradient id="paint78_linear_122_130" x1="928.5" y1="-18" x2="928.5" y2="280.818" gradientUnits="userSpaceOnUse">
<stop stop-color="#F7DD43"/>
<stop offset="1" stop-color="#F7DD43" stop-opacity="0"/>
</linearGradient>
<linearGradient id="paint79_linear_122_130" x1="928.5" y1="-18" x2="928.5" y2="280.818" gradientUnits="userSpaceOnUse">
<stop stop-color="#F7DD43"/>
<stop offset="1" stop-color="#F7DD43" stop-opacity="0"/>
</linearGradient>
<linearGradient id="paint80_linear_122_130" x1="928.5" y1="-18" x2="928.5" y2="280.818" gradientUnits="userSpaceOnUse">
<stop stop-color="#F7DD43"/>
<stop offset="1" stop-color="#F7DD43" stop-opacity="0"/>
</linearGradient>
<linearGradient id="paint81_linear_122_130" x1="928.5" y1="-18" x2="928.5" y2="280.818" gradientUnits="userSpaceOnUse">
<stop stop-color="#F7DD43"/>
<stop offset="1" stop-color="#F7DD43" stop-opacity="0"/>
</linearGradient>
<linearGradient id="paint82_linear_122_130" x1="928.5" y1="-18" x2="928.5" y2="280.818" gradientUnits="userSpaceOnUse">
<stop stop-color="#F7DD43"/>
<stop offset="1" stop-color="#F7DD43" stop-opacity="0"/>
</linearGradient>
<linearGradient id="paint83_linear_122_130" x1="928.5" y1="-18" x2="928.5" y2="280.818" gradientUnits="userSpaceOnUse">
<stop stop-color="#F7DD43"/>
<stop offset="1" stop-color="#F7DD43" stop-opacity="0"/>
</linearGradient>
<linearGradient id="paint84_linear_122_130" x1="928.5" y1="-18" x2="928.5" y2="280.818" gradientUnits="userSpaceOnUse">
<stop stop-color="#F7DD43"/>
<stop offset="1" stop-color="#F7DD43" stop-opacity="0"/>
</linearGradient>
<linearGradient id="paint85_linear_122_130" x1="928.5" y1="-18" x2="928.5" y2="280.818" gradientUnits="userSpaceOnUse">
<stop stop-color="#F7DD43"/>
<stop offset="1" stop-color="#F7DD43" stop-opacity="0"/>
</linearGradient>
<linearGradient id="paint86_linear_122_130" x1="928.5" y1="-18" x2="928.5" y2="280.818" gradientUnits="userSpaceOnUse">
<stop stop-color="#F7DD43"/>
<stop offset="1" stop-color="#F7DD43" stop-opacity="0"/>
</linearGradient>
<linearGradient id="paint87_linear_122_130" x1="928.5" y1="-18" x2="928.5" y2="280.818" gradientUnits="userSpaceOnUse">
<stop stop-color="#F7DD43"/>
<stop offset="1" stop-color="#F7DD43" stop-opacity="0"/>
</linearGradient>
<linearGradient id="paint88_linear_122_130" x1="928.5" y1="-18" x2="928.5" y2="280.818" gradientUnits="userSpaceOnUse">
<stop stop-color="#F7DD43"/>
<stop offset="1" stop-color="#F7DD43" stop-opacity="0"/>
</linearGradient>
<linearGradient id="paint89_linear_122_130" x1="928.5" y1="-18" x2="928.5" y2="280.818" gradientUnits="userSpaceOnUse">
<stop stop-color="#F7DD43"/>
<stop offset="1" stop-color="#F7DD43" stop-opacity="0"/>
</linearGradient>
<linearGradient id="paint90_linear_122_130" x1="928.5" y1="-18" x2="928.5" y2="280.818" gradientUnits="userSpaceOnUse">
<stop stop-color="#F7DD43"/>
<stop offset="1" stop-color="#F7DD43" stop-opacity="0"/>
</linearGradient>
<linearGradient id="paint91_linear_122_130" x1="928.5" y1="-18" x2="928.5" y2="280.818" gradientUnits="userSpaceOnUse">
<stop stop-color="#F7DD43"/>
<stop offset="1" stop-color="#F7DD43" stop-opacity="0"/>
</linearGradient>
<linearGradient id="paint92_linear_122_130" x1="928.5" y1="-18" x2="928.5" y2="280.818" gradientUnits="userSpaceOnUse">
<stop stop-color="#F7DD43"/>
<stop offset="1" stop-color="#F7DD43" stop-opacity="0"/>
</linearGradient>
<linearGradient id="paint93_linear_122_130" x1="928.5" y1="-18" x2="928.5" y2="280.818" gradientUnits="userSpaceOnUse">
<stop stop-color="#F7DD43"/>
<stop offset="1" stop-color="#F7DD43" stop-opacity="0"/>
</linearGradient>
<clipPath id="clip0_122_130">
<rect width="1024" height="753" fill="white"/>
</clipPath>
</defs>
</svg>